<svg xmlns="http://www.w3.org/2000/svg" xmlns:svg="http://www.w3.org/2000/svg" id="svg2" width="14" height="18" version="1.1" viewBox="0 0 14 18"><path style="fill:none;stroke:#757575;stroke-width:1;stroke-linecap:butt;stroke-linejoin:round;stroke-miterlimit:4;stroke-dasharray:none;stroke-opacity:1" id="path917" d="M 1.5003822,2.5063148 1.5000273,15.5 A 0.99997269,0.99997269 45.000782 0 0 2.5,16.5 h 9 a 1,1 135 0 0 1,-1 V 6.3440001 A 2.3479106,2.3479106 66.930332 0 0 11.778973,4.6510931 L 9.221027,2.192907 A 2.4805476,2.4805476 21.904486 0 0 7.5000004,1.5009022 l -4.9995913,0.00451 A 1.0009299,1.0009299 134.97494 0 0 1.5003822,2.5063148 Z"/><path id="path921" style="fill:none;stroke:#757575;stroke-width:1;stroke-linecap:round;stroke-linejoin:miter;stroke-miterlimit:4;stroke-dasharray:none;stroke-opacity:1" d="M 12.35,6.5 H 8.5 a 1,1 45 0 1 -1,-1 V 1.55"/><metadata id="metadata10"/><rect style="fill:none;stroke-width:4;stroke-linejoin:round" id="rect2270" width="14" height="18" x="0" y="0"/></svg>