<svg xmlns="http://www.w3.org/2000/svg" xmlns:svg="http://www.w3.org/2000/svg" id="svg6318" width="148.469" height="100.373" version="1.1" viewBox="0 0 148.469 100.373"><title id="title892">pointerHandlerMargin</title><defs id="defs20"><marker style="overflow:visible" id="marker1145" orient="auto" refX="0" refY="0"><path id="path1143" d="M 8.7185878,4.0337352 -2.2072895,0.01601326 8.7185884,-4.0017078 c -1.7454984,2.3720609 -1.7354408,5.6174519 -6e-7,8.035443 z" transform="scale(0.6)" style="fill:#000;fill-opacity:1;fill-rule:evenodd;stroke:#000;stroke-width:.625;stroke-linejoin:round;stroke-opacity:1"/></marker><marker id="marker5708" orient="auto" refX="0" refY="0" style="overflow:visible"><path id="path5710" style="fill:#000;fill-opacity:1;fill-rule:evenodd;stroke:#000;stroke-width:.625;stroke-linejoin:round;stroke-opacity:1" d="M 8.7185878,4.0337352 -2.2072895,0.01601326 8.7185884,-4.0017078 c -1.7454984,2.3720609 -1.7354408,5.6174519 -6e-7,8.035443 z" transform="scale(-0.6)"/></marker><marker id="marker5656" orient="auto" refX="0" refY="0" style="overflow:visible"><path id="path5658" style="fill:#000;fill-opacity:1;fill-rule:evenodd;stroke:#000;stroke-width:.625;stroke-linejoin:round;stroke-opacity:1" d="M 8.7185878,4.0337352 -2.2072895,0.01601326 8.7185884,-4.0017078 c -1.7454984,2.3720609 -1.7354408,5.6174519 -6e-7,8.035443 z" transform="scale(0.6)"/></marker><marker id="Arrow1Mstart" orient="auto" refX="0" refY="0" style="overflow:visible"><path id="path4267" d="M 0,0 5,-5 -12.5,0 5,5 Z" style="fill:#e2ff8b;fill-opacity:.25098039;fill-rule:evenodd;stroke:#000;stroke-width:1.00000003pt;stroke-opacity:1" transform="matrix(0.4,0,0,0.4,4,0)"/></marker><marker id="Arrow1Lend" orient="auto" refX="0" refY="0" style="overflow:visible"><path id="path4264" d="M 0,0 5,-5 -12.5,0 5,5 Z" style="fill:#e2ff8b;fill-opacity:.25098039;fill-rule:evenodd;stroke:#000;stroke-width:1.00000003pt;stroke-opacity:1" transform="matrix(-0.8,0,0,-0.8,-10,0)"/></marker></defs><g id="layer1" transform="translate(-86.411864,-164.74934)"><rect style="opacity:1;fill:none;fill-opacity:1;stroke:#006eed;stroke-width:.99999994;stroke-linecap:round;stroke-linejoin:miter;stroke-miterlimit:4;stroke-dasharray:none;stroke-dashoffset:0;stroke-opacity:1" id="rect4231" width="30.623" height="41.005" x="127.529" y="204.553" ry="3.391" transform="rotate(-6.0579549)"/><text xml:space="preserve" style="font-style:normal;font-variant:normal;font-weight:400;font-stretch:normal;font-size:12px;line-height:125%;font-family:Sans;-inkscape-font-specification:Sans;text-align:start;letter-spacing:0;word-spacing:0;writing-mode:lr-tb;text-anchor:start;fill:#006eed;fill-opacity:1;stroke:none;stroke-width:1px;stroke-linecap:butt;stroke-linejoin:miter;stroke-opacity:1" id="text4234" x="129.1" y="218.276" transform="rotate(-6.0579549)"><tspan id="tspan4236" x="129.1" y="218.276">Item</tspan></text><rect id="rect1011" width="42.822" height="57.209" x="121.43" y="196.451" ry="4.731" style="opacity:1;fill:none;fill-opacity:1;stroke:#006eed;stroke-width:1;stroke-linecap:round;stroke-linejoin:miter;stroke-miterlimit:4;stroke-dasharray:1,3;stroke-dashoffset:0;stroke-opacity:1" transform="rotate(-6.0579549)"/><path style="fill:none;fill-rule:evenodd;stroke:#000;stroke-width:1px;stroke-linecap:butt;stroke-linejoin:miter;stroke-opacity:1;marker-start:url(#marker5656)" id="path1013" d="m 152.47483,208.41921 12.89093,-1.36808"/><path id="path6337" d="m 189.62569,349.61549 -24.29,-54.26 -12.83194,-58.84322 c -2.6119,-12.7355 2.2926,-19.07175 9.23283,-20.18303 6.94022,-1.11127 15.91617,3.00243 21.44717,11.16683 8.071,9.1465 4.33419,25.07247 11.96207,39.28935 7.62787,14.21687 15.16237,31.30787 22.85987,51.95087 l 5.2215,-4.5404 14.80555,-23.66072 -9.48553,-65.8264 -19.7978,-27.78564 -25.75599,2.46365 c -15.01523,-4.56498 -8.7269,-29.71674 14.1138,-30.8189 0,0 24.50188,-6.93892 30.57911,0.83552 6.07722,7.77444 30.208,23.27674 35.52842,29.53381 6.64558,7.81553 12.02547,67.49345 12.02547,67.49345" style="fill:#f2ecd5;fill-opacity:.88108108;stroke:#4d4d4d;stroke-width:5.15140009;stroke-linecap:round;stroke-linejoin:round;stroke-opacity:.25098039"/><path id="path1141" d="m 142.4415,209.48402 -12.89093,1.36807" style="fill:none;fill-rule:evenodd;stroke:#000;stroke-width:1px;stroke-linecap:butt;stroke-linejoin:miter;stroke-opacity:1;marker-start:url(#marker1145)"/><text id="text1335" x="104.817" y="226.884" style="font-style:normal;font-variant:normal;font-weight:400;font-stretch:normal;font-size:12px;line-height:125%;font-family:Sans;-inkscape-font-specification:'Sans, Normal';font-variant-ligatures:normal;font-variant-caps:normal;font-variant-numeric:normal;font-feature-settings:normal;text-align:end;letter-spacing:0;word-spacing:0;writing-mode:lr-tb;text-anchor:end;fill:#000;fill-opacity:1;stroke:none;stroke-width:1px;stroke-linecap:butt;stroke-linejoin:miter;stroke-opacity:1" transform="rotate(-6.0579549)" xml:space="preserve"><tspan id="tspan862" x="104.817" y="226.884">margin</tspan></text></g><metadata id="metadata19"/></svg>