<svg xmlns="http://www.w3.org/2000/svg" xmlns:svg="http://www.w3.org/2000/svg" id="svg8" width="64" height="64" version="1.1" viewBox="0 0 16.933 16.933"><metadata id="metadata5"/><g id="layer1" transform="translate(-0.00708803,0.51688025)"><path style="fill:#141f3a;fill-opacity:1;stroke:none;stroke-width:.26458332px;stroke-linecap:butt;stroke-linejoin:miter;stroke-opacity:1" id="path826" d="m 1.6489221,4.3034973 h 0.7205171 v 7.0102767 c 0.01422,0.27678 0.1921164,0.348966 0.392741,0.392741 H 14.169383 c 0.276028,-0.04241 0.382882,-0.208883 0.423747,-0.423747 V 4.3094031 h 0.692464 v 7.0279949 c -0.111554,0.831949 -0.589986,1.000696 -1.104399,1.104399 H 9.3324693 l 2.2589977,2.258998 c -0.0189,0.375139 -0.204956,0.516261 -0.501999,0.502 L 8.8304698,12.943797 v 1.972563 c -0.051861,0.342631 -0.6681357,0.36382 -0.7323291,0 V 12.949702 L 5.8391425,15.208701 C 5.5142667,15.206145 5.3522558,15.056484 5.3725781,14.742136 L 7.7172116,12.397503 H 2.7415096 C 2.1429244,12.357576 1.6879444,12.049089 1.6444927,11.300486 Z"/><rect style="fill:#141f3a;fill-opacity:1;stroke:none;stroke-width:.2619375;stroke-miterlimit:4;stroke-dasharray:.523875,.2619375;stroke-dashoffset:0" id="rect828" width="16.045" height="1.913" x=".441" y="2.034" rx="1.058" ry="1.058"/><path style="fill:#141f3a;fill-opacity:1;stroke:none;stroke-width:.26458332px;stroke-linecap:butt;stroke-linejoin:miter;stroke-opacity:1" id="path830" d="M 7.8323763,1.681278 V 1.1615701 c 0.1987987,-0.67546179 1.0821701,-0.66495897 1.2992931,0 V 1.681278 Z"/></g></svg>