<svg xmlns="http://www.w3.org/2000/svg" xmlns:svg="http://www.w3.org/2000/svg" id="svg8" width="64" height="64" version="1.1" viewBox="0 0 16.933 16.933"><metadata id="metadata5"/><g id="layer1" transform="translate(-0.00708803,0.51688025)"><path style="fill:#141f3a;fill-opacity:1;stroke:none;stroke-width:.25668776px;stroke-linecap:butt;stroke-linejoin:miter;stroke-opacity:1" id="path4535" d="M 2.7296861,14.56437 H 12.831038 C 13.464556,14.411157 15.01089,14.101758 15.231756,11.825604 15.232242,10.48538 13.96701,8.4813248 11.69084,9.0467292 10.687852,7.3630573 9.1232541,7.2558172 8.2817051,7.654427 6.9050791,4.9744381 2.9222535,5.8560797 2.9703307,8.9435956 1.7108806,9.1004362 0.37826375,9.7182846 0.27167137,11.745388 0.31660717,13.546059 1.5831259,14.350467 2.7296861,14.56437 Z"/><path style="fill:#141f3a;fill-opacity:1;stroke:none;stroke-width:.25668776px;stroke-linecap:butt;stroke-linejoin:miter;stroke-opacity:1" id="path4537" d="M 11.392726,0.92763044 C 8.8246143,2.2754379 7.9809615,4.3443829 8.9780532,7.1830936 10.167295,7.1426991 11.108291,7.6664967 11.822182,8.7064442 12.799984,8.6194307 13.765772,8.6795708 14.658208,9.6382815 15.605885,9.3257847 16.200803,8.852941 16.675838,8.325607 13.735088,9.4033595 8.6151974,5.957728 11.392726,0.92763044 Z"/></g></svg>