<svg xmlns="http://www.w3.org/2000/svg" xmlns:svg="http://www.w3.org/2000/svg" id="svg806" width="954.509" height="442.617" version="1.1" viewBox="0 0 715.963 331.962"><defs id="defs810"><marker style="overflow:visible" id="marker1576" markerHeight="6.609" markerWidth="5.887" orient="auto-start-reverse" preserveAspectRatio="xMidYMid" refX="0" refY="0" viewBox="0 0 5.887 6.609"><path transform="scale(0.5)" style="fill:context-stroke;fill-rule:evenodd;stroke:context-stroke;stroke-width:1pt" id="path1574" d="m 6,0 c -3,1 -7,3 -9,5 0,0 0,-4 2,-5 -2,-1 -2,-5 -2,-5 2,2 6,4 9,5 z"/></marker><marker style="overflow:visible" id="marker1576-4" markerHeight="6.609" markerWidth="5.887" orient="auto-start-reverse" preserveAspectRatio="xMidYMid" refX="0" refY="0" viewBox="0 0 5.887 6.609"><path transform="scale(0.5)" style="fill:context-stroke;fill-rule:evenodd;stroke:context-stroke;stroke-width:1pt" id="path1574-4" d="m 6,0 c -3,1 -7,3 -9,5 0,0 0,-4 2,-5 -2,-1 -2,-5 -2,-5 2,2 6,4 9,5 z"/></marker></defs><g id="graph0" class="graph" transform="translate(3.9999999,327.98119)"><polygon id="polygon654" fill="#fff" stroke="none" points="615.07 4 -4 4 -4 -328 615.07 -328" transform="matrix(1.1565133,0,0,1,0.62605332,0)"/><g id="node1" class="node" style="stroke-width:1.00011;stroke-dasharray:none"><title id="title656">llfkmbbephlg</title><polygon id="polygon658" fill="none" stroke="#000" points="262.78 -328 250.78 -328 250.78 -288 474.53 -288 474.53 -324 262.78 -324" style="stroke-width:1.00011;stroke-dasharray:none"/><polyline id="polyline660" fill="none" stroke="#000" points="250.78 -324 262.78 -324" style="stroke-width:1.00011;stroke-dasharray:none"/><text id="text662" x="362.66" y="-300.95" font-family="Times, serif" font-size="12" text-anchor="middle" style="stroke-width:1.00011;stroke-dasharray:none">ResizeItemToWindow_QMLTYPE_1</text></g><g id="node2" class="node"><title id="title665">llfkmbbeijgg</title><polygon id="polygon667" fill="none" stroke="#000" points="402.53 -252 322.78 -252 322.78 -216 402.53 -216"/><text id="text669" x="362.66" y="-229.32" font-family="Times, serif" font-size="12" text-anchor="middle">ℚRootItem</text></g><g id="edge1" class="edge"><title id="title672">llfkmbbephlg-&gt;llfkmbbeijgg</title><path id="path674" fill="none" stroke="#000" d="m 362.66,-274.81 c 0,7.77 0,15.86 0,22.71"/><polygon id="polygon676" fill="none" stroke="#000" points="362.66 -274.8 366.66 -280.8 362.66 -286.8 358.66 -280.8"/></g><g id="node3" class="node"><title id="title679">llfkmbbepmbg</title><polygon id="polygon681" fill="none" stroke="#000" points="327.66 -180 245.66 -180 245.66 -144 327.66 -144"/><text id="text683" x="286.66" y="-157.32" font-family="Times, serif" font-size="12" text-anchor="middle">ℚRectangle</text></g><g id="edge2" class="edge"><title id="title686">llfkmbbeijgg-&gt;llfkmbbepmbg</title><path id="path688" fill="none" stroke="#000" d="m 334.28,-206.87 c -9.61,8.86 -20.1,18.52 -28.79,26.52"/><polygon id="polygon690" fill="none" stroke="#000" points="334.38 -206.96 341.51 -208.08 343.21 -215.09 336.09 -213.96"/></g><g id="node11" class="node"><title id="title693">llfkmbclplkg</title><polygon id="polygon695" fill="none" stroke="#000" points="533.43 -176.56 345.89 -176.56 345.8 -156.44 439.66 -144 533.52 -156.44"/><text id="text697" x="439.66" y="-157.32" font-family="Times, serif" font-size="12" text-anchor="middle">ℚDeliveryAgent</text></g><g id="edge10" class="edge"><title id="title700">llfkmbbeijgg-&gt;llfkmbclplkg</title><path id="path702" fill="none" stroke="#000" d="m 391.18,-207.07 c 11.28,10.25 23.79,21.62 33.27,30.25"/><polygon id="polygon704" fill="none" stroke="#000" points="391.24 -207.02 389.49 -214.01 382.36 -215.09 384.11 -208.09"/></g><g id="node4" class="node"><title id="title707">llfkmbodpifg</title><polygon id="polygon709" fill="none" stroke="#000" points=".08 -75.44 177.23 -75.44 177.32 -95.56 88.66 -108 0 -95.56"/><text id="text711" x="88.66" y="-85.33" font-family="Times, serif" font-size="12" text-anchor="middle">ℚPinchHandler</text></g><g id="edge3" class="edge"><title id="title714">llfkmbbepmbg-&gt;llfkmbodpifg</title><path id="path716" fill="none" stroke="#000" d="m 233.33,-142.15 c -34.69,12.27 -78.95,27.92 -109.33,38.66"/><polygon id="polygon718" fill="none" stroke="#000" points="233.47 -142.2 240.46 -140.42 244.78 -146.2 237.79 -147.97"/></g><g id="node5" class="node"><title id="title721">llfkmbnfping</title><polygon id="polygon723" fill="none" stroke="#000" points="277.66 -108 195.66 -108 195.66 -72 277.66 -72"/><text id="text725" x="236.66" y="-85.33" font-family="Times, serif" font-size="12" text-anchor="middle">ℚRectangle</text></g><g id="edge4" class="edge"><title id="title728">llfkmbbepmbg-&gt;llfkmbnfping</title><path id="path730" fill="none" stroke="#000" d="m 266.73,-133.1 c -6.04,8.45 -12.48,17.48 -17.85,25"/><polygon id="polygon732" fill="none" stroke="#000" points="266.8 -133.2 273.54 -135.76 273.78 -142.96 267.03 -140.41"/></g><g id="node7" class="node"><title id="title735">llfkmbbdfibg</title><polygon id="polygon737" fill="none" stroke="#000" points="377.66 -108 295.66 -108 295.66 -72 377.66 -72"/><text id="text739" x="336.66" y="-85.33" font-family="Times, serif" font-size="12" text-anchor="middle">ℚRectangle</text></g><g id="edge6" class="edge"><title id="title742">llfkmbbepmbg-&gt;llfkmbbdfibg</title><path id="path744" fill="none" stroke="#000" d="m 306.59,-133.1 c 6.03,8.45 12.48,17.48 17.85,25"/><polygon id="polygon746" fill="none" stroke="#000" points="306.52 -133.2 306.28 -140.41 299.54 -142.96 299.77 -135.76"/></g><g id="node9" class="node"><title id="title749">llfkmbodeang</title><polygon id="polygon751" fill="none" stroke="#000" points="522.66 -108 440.66 -108 440.66 -72 522.66 -72"/><text id="text753" x="481.66" y="-85.33" font-family="Times, serif" font-size="12" text-anchor="middle">ℚRectangle</text></g><g id="edge8" class="edge"><title id="title756">llfkmbbepmbg-&gt;llfkmbodeang</title><path id="path758" fill="none" stroke="#000" d="m 340.14,-141.8 c 31.61,11.35 71.02,25.49 100.22,35.98"/><polygon id="polygon760" fill="none" stroke="#000" points="340.16 -141.8 335.86 -147.59 328.86 -145.85 333.16 -140.06"/></g><g id="node6" class="node"><title id="title763">llfkmbbfjjgg</title><polygon id="polygon765" fill="none" stroke="#000" points="62.33 -3.44 232.99 -3.44 233.07 -23.56 147.66 -36 62.25 -23.56"/><text id="text767" x="147.66" y="-13.33" font-family="Times, serif" font-size="12" text-anchor="middle">ℚDragHandler</text></g><g id="edge5" class="edge"><title id="title770">llfkmbnfping-&gt;llfkmbbfjjgg</title><path id="path772" fill="none" stroke="#000" d="m 204.77,-63.92 c -12.86,10.12 -27.25,21.44 -38.37,30.18"/><polygon id="polygon774" fill="none" stroke="#000" points="204.52 -63.72 211.71 -64.29 213.95 -71.14 206.76 -70.57"/></g><g id="node8" class="node"><title id="title777">llfkmbbfibdg</title><polygon id="polygon779" fill="none" stroke="#000" points="251.33 -3.44 421.99 -3.44 422.07 -23.56 336.66 -36 251.25 -23.56"/><text id="text781" x="336.66" y="-13.33" font-family="Times, serif" font-size="12" text-anchor="middle">ℚDragHandler</text></g><g id="edge7" class="edge"><title id="title784">llfkmbbdfibg-&gt;llfkmbbfibdg</title><path id="path786" fill="none" stroke="#000" d="m 336.66,-58.81 c 0,7.77 0,15.86 0,22.71"/><polygon id="polygon788" fill="none" stroke="#000" points="336.66 -58.8 340.66 -64.8 336.66 -70.8 332.66 -64.8"/></g><g id="node10" class="node"><title id="title791">llfkmbcknglg</title><polygon id="polygon793" fill="none" stroke="#000" points="440.33 -3.44 610.99 -3.44 611.07 -23.56 525.66 -36 440.25 -23.56"/><text id="text795" x="525.66" y="-13.33" font-family="Times, serif" font-size="12" text-anchor="middle">ℚDragHandler</text></g><g id="edge9" class="edge"><title id="title798">llfkmbodeang-&gt;llfkmbcknglg</title><path id="path800" fill="none" stroke="#000" d="m 499.32,-60.9 c 5.62,8.94 11.63,18.5 16.49,26.23"/><polygon id="polygon802" fill="none" stroke="#000" points="499.4 -60.77 499.59 -67.98 493.01 -70.93 492.82 -63.72"/></g><g id="g11866" class="edge" transform="rotate(-90,623.51573,-276.02262)"><title id="title11860">llfkmbbephlg-&gt;llfkmbbeijgg</title><path id="path11862" fill="none" stroke="#000" d="m 362.66,-274.81 c 0,7.77 0,15.86 0,22.71"/><polygon id="polygon11864" fill="none" stroke="#000" points="358.66 -280.8 362.66 -274.8 366.66 -280.8 362.66 -286.8"/></g><path id="path12337" fill="none" stroke="#000" d="m 708.8157,-33.802688 c 0,-1.93521 -13.67346,-3.50801 -30.51031,-3.50801 -16.83686,0 -30.51503,1.5728 -30.51503,3.50801 0,0 0,31.5378501 0,31.5378501 0,1.93522003 13.67817,3.50801 30.51503,3.50801 16.83685,0 30.51031,-1.57278997 30.51031,-3.50801 0,0 0,-31.5378501 0,-31.5378501" style="stroke-width:.568213"/><path id="path12339" fill="none" stroke="#000" d="m 708.8157,-33.802688 c 0,1.92838 -13.67346,3.50116 -30.51031,3.50116 -16.83686,0 -30.51503,-1.57278 -30.51503,-3.50116" style="stroke-width:.568213"/><text id="text12341" x="678.238" y="-14.011" font-family="Times, serif" font-size="8" text-anchor="middle" style="stroke-width:.681807">currentPoints</text><g id="g14256" class="edge" transform="rotate(-90,507.65517,-314.66065)"><title id="title14250">llfkmbbephlg-&gt;llfkmbbeijgg</title><path id="path14252" fill="none" stroke="#000" d="m 362.66,-274.81 c 0,7.77 0,15.86 0,22.71"/><polygon id="polygon14254" fill="none" stroke="#000" points="362.66 -274.8 366.66 -280.8 362.66 -286.8 358.66 -280.8"/></g><path id="path14258" fill="none" stroke="#000" d="m 631.59317,-188.30128 c 0,-1.93521 -13.67346,-3.50801 -30.51031,-3.50801 -16.83686,0 -30.51503,1.5728 -30.51503,3.50801 0,0 0,31.53785 0,31.53785 0,1.93522 13.67817,3.50801 30.51503,3.50801 16.83685,0 30.51031,-1.57279 30.51031,-3.50801 0,0 0,-31.53785 0,-31.53785" style="stroke-width:.568213"/><path id="path14260" fill="none" stroke="#000" d="m 631.59317,-188.30128 c 0,1.92838 -13.67346,3.50116 -30.51031,3.50116 -16.83686,0 -30.51503,-1.57278 -30.51503,-3.50116" style="stroke-width:.568213"/><text id="text14262" x="601.016" y="-168.51" font-family="Times, serif" font-size="8" text-anchor="middle" style="stroke-width:.681807">targetItems</text></g><g id="g2388" transform="translate(166.85425,117.65224)"><rect style="fill:#fff;stroke:#000;stroke-width:.869398;stroke-linecap:square;stroke-dasharray:.869398,.869398;stroke-opacity:1" id="rect981" width="115.878" height="32.582" x="-181.47" y="-115.936" ry="0" transform="matrix(1,0,-0.22867874,0.97350194,0,0)"/><text xml:space="preserve" style="font-style:normal;font-variant:normal;font-weight:400;font-stretch:normal;font-size:9pt;line-height:125%;font-family:Times,serif;-inkscape-font-specification:'Times, serif, Normal';font-variant-ligatures:normal;font-variant-caps:normal;font-variant-numeric:normal;font-variant-east-asian:normal;letter-spacing:0;word-spacing:0;writing-mode:lr-tb;fill:#000;fill-opacity:1;stroke:none;stroke-width:.750085px;stroke-linecap:butt;stroke-linejoin:miter;stroke-dasharray:none;stroke-opacity:1" id="text1897" x="-149.444" y="-93.743"><tspan id="tspan1895" style="font-style:normal;font-variant:normal;font-weight:400;font-stretch:normal;font-size:9pt;font-family:Times,serif;-inkscape-font-specification:'Times, serif, Normal';font-variant-ligatures:normal;font-variant-caps:normal;font-variant-numeric:normal;font-variant-east-asian:normal;fill:#000;fill-opacity:1;stroke:none;stroke-width:.750085px" x="-149.444" y="-93.743">QGuiApplication</tspan></text></g><path style="fill:none;fill-rule:evenodd;stroke:#1c1be6;stroke-width:1.00011;stroke-linecap:butt;stroke-linejoin:miter;stroke-dasharray:1.00011,1.00011;stroke-dashoffset:0;stroke-opacity:1;marker-end:url(#marker1576)" id="path2661" d="m 534.3515,175.55291 c 8.9308,13.96865 -25.72468,19.46301 -18.49471,5.27481"/><text xml:space="preserve" style="font-style:normal;font-variant:normal;font-weight:400;font-stretch:normal;font-size:6pt;line-height:125%;font-family:'DejaVu Sans Mono';-inkscape-font-specification:'DejaVu Sans Mono, Normal';font-variant-ligatures:normal;font-variant-caps:normal;font-variant-numeric:normal;font-variant-east-asian:normal;letter-spacing:0;word-spacing:0;writing-mode:lr-tb;fill:#e6a11b;fill-opacity:1;stroke:none;stroke-width:.750085px;stroke-linecap:butt;stroke-linejoin:miter;stroke-opacity:1" id="text8866" x="113.758" y="213.933" transform="rotate(-11.181322)"><tspan style="font-style:normal;font-variant:normal;font-weight:400;font-stretch:normal;font-size:6pt;font-family:'DejaVu Sans Mono';-inkscape-font-specification:'DejaVu Sans Mono, Normal';font-variant-ligatures:normal;font-variant-caps:normal;font-variant-numeric:normal;font-variant-east-asian:normal;fill:#e6a11b;fill-opacity:1;stroke:none;stroke-width:.750085px" id="tspan8864" x="113.758" y="213.933">skipped</tspan></text><path style="fill:none;fill-rule:evenodd;stroke:#e6a11b;stroke-width:1.00011;stroke-linecap:butt;stroke-linejoin:miter;stroke-dasharray:1.00011,1.00011;stroke-dashoffset:0;stroke-opacity:1;marker-end:url(#marker1576-4)" id="path2625" d="M 248.80679,166.05103 C 128.29267,210.33716 109.36613,183.17227 102.95996,215.73635"/><path style="fill:none;fill-rule:evenodd;stroke:#e6a11b;stroke-width:1.00011;stroke-linecap:butt;stroke-linejoin:miter;stroke-dasharray:1.00011,1.00011;stroke-dashoffset:0;stroke-opacity:1;marker-end:url(#marker1576-4)" id="path9198" d="m 205.26622,258.16221 c -30.99608,41.44745 -40.03963,1.76839 -45.06759,29.20422"/><path style="fill:none;fill-rule:evenodd;stroke:#e6a11b;stroke-width:1.00011;stroke-linecap:butt;stroke-linejoin:miter;stroke-dasharray:1.00011,1.00011;stroke-dashoffset:0;stroke-opacity:1;marker-end:url(#marker1576-4)" id="path9218" d="m 325.15207,257.83821 c -2.27262,29.75722 -30.19879,12.70432 -28.21604,34.22384"/><path style="fill:none;fill-rule:evenodd;stroke:#1c1be6;stroke-width:1.00011;stroke-linecap:butt;stroke-linejoin:miter;stroke-dasharray:1.00011,1.00011;stroke-dashoffset:0;stroke-opacity:1;marker-end:url(#marker1576-4)" id="path9238" d="m 515.92916,258.31316 c 8.69611,26.1658 28.09925,12.12573 28.29307,30.37142"/><text xml:space="preserve" style="font-style:normal;font-variant:normal;font-weight:400;font-stretch:normal;font-size:6pt;line-height:125%;font-family:'DejaVu Sans Mono';-inkscape-font-specification:'DejaVu Sans Mono, Normal';font-variant-ligatures:normal;font-variant-caps:normal;font-variant-numeric:normal;font-variant-east-asian:normal;letter-spacing:0;word-spacing:0;writing-mode:lr-tb;fill:#1c1be6;fill-opacity:1;stroke:none;stroke-width:.750085px;stroke-linecap:butt;stroke-linejoin:miter;stroke-opacity:1" id="text9282" x="412.411" y="194.721"><tspan style="font-style:normal;font-variant:normal;font-weight:400;font-stretch:normal;font-size:6pt;font-family:'DejaVu Sans Mono';-inkscape-font-specification:'DejaVu Sans Mono, Normal';font-variant-ligatures:normal;font-variant-caps:normal;font-variant-numeric:normal;font-variant-east-asian:normal;fill:#1c1be6;fill-opacity:1;stroke:none;stroke-width:.750085px" id="tspan9280" x="412.411" y="194.721">③ mapFromScene()</tspan></text><text xml:space="preserve" style="font-style:normal;font-variant:normal;font-weight:400;font-stretch:normal;font-size:6pt;line-height:125%;font-family:'DejaVu Sans Mono';-inkscape-font-specification:'DejaVu Sans Mono, Normal';font-variant-ligatures:normal;font-variant-caps:normal;font-variant-numeric:normal;font-variant-east-asian:normal;letter-spacing:0;word-spacing:0;writing-mode:lr-tb;fill:#1c1be6;fill-opacity:1;stroke:none;stroke-width:.750085px;stroke-linecap:butt;stroke-linejoin:miter;stroke-opacity:1" id="text9304" x="527.648" y="266.124"><tspan style="font-style:normal;font-variant:normal;font-weight:400;font-stretch:normal;font-size:6pt;font-family:'DejaVu Sans Mono';-inkscape-font-specification:'DejaVu Sans Mono, Normal';font-variant-ligatures:normal;font-variant-caps:normal;font-variant-numeric:normal;font-variant-east-asian:normal;fill:#1c1be6;fill-opacity:1;stroke:none;stroke-width:.750085px" id="tspan11558" x="527.648" y="266.124">⑤ handlePointerEvent()</tspan></text><text xml:space="preserve" style="font-style:normal;font-variant:normal;font-weight:400;font-stretch:normal;font-size:6pt;line-height:125%;font-family:'DejaVu Sans Mono';-inkscape-font-specification:'DejaVu Sans Mono, Normal';font-variant-ligatures:normal;font-variant-caps:normal;font-variant-numeric:normal;font-variant-east-asian:normal;letter-spacing:0;word-spacing:0;writing-mode:lr-tb;fill:#1c1be6;fill-opacity:1;stroke:none;stroke-width:.750085px;stroke-linecap:butt;stroke-linejoin:miter;stroke-opacity:1" id="text9334" x="539.947" y="184.11"><tspan style="font-style:normal;font-variant:normal;font-weight:400;font-stretch:normal;font-size:6pt;font-family:'DejaVu Sans Mono';-inkscape-font-specification:'DejaVu Sans Mono, Normal';font-variant-ligatures:normal;font-variant-caps:normal;font-variant-numeric:normal;font-variant-east-asian:normal;fill:#1c1be6;fill-opacity:1;stroke:none;stroke-width:.750085px" id="tspan9332" x="539.947" y="184.11">① deliverMatchingPointsToItem()</tspan><tspan style="font-style:normal;font-variant:normal;font-weight:400;font-stretch:normal;font-size:6pt;font-family:'DejaVu Sans Mono';-inkscape-font-specification:'DejaVu Sans Mono, Normal';font-variant-ligatures:normal;font-variant-caps:normal;font-variant-numeric:normal;font-variant-east-asian:normal;fill:#1c1be6;fill-opacity:1;stroke:none;stroke-width:.750085px" id="tspan9365" x="539.947" y="195.065">② localizePointerEvent()</tspan></text><path style="fill:none;fill-rule:evenodd;stroke:#e6a11b;stroke-width:1.00011;stroke-linecap:butt;stroke-linejoin:miter;stroke-dasharray:1.00011,1.00011;stroke-dashoffset:0;stroke-opacity:1;marker-end:url(#marker1576-4)" id="path9367" d="m 371.17602,176.60114 c -19.44733,11.33075 -28.42572,-6.22235 -36.44805,-6.86652"/><path style="fill:none;fill-rule:evenodd;stroke:#e6a11b;stroke-width:1.00011;stroke-linecap:butt;stroke-linejoin:miter;stroke-dasharray:1.00011,1.00011;stroke-dashoffset:0;stroke-opacity:1;marker-end:url(#marker1576-4)" id="path9387" d="m 371.17602,176.60114 c -14.82664,21.37092 -94.59207,21.74646 -97.17351,38.08234"/><path style="fill:none;fill-rule:evenodd;stroke:#e6a11b;stroke-width:1.00011;stroke-linecap:butt;stroke-linejoin:miter;stroke-dasharray:1.00011,1.00011;stroke-dashoffset:0;stroke-opacity:1;marker-end:url(#marker1576-4)" id="path9407" d="m 371.17602,176.60114 c -14.82664,21.37092 4.12412,22.17486 1.54268,38.51074"/><path style="fill:none;fill-rule:evenodd;stroke:#1c1be6;stroke-width:1.00011;stroke-linecap:butt;stroke-linejoin:miter;stroke-dasharray:1.00011,1.00011;stroke-dashoffset:0;stroke-opacity:1;marker-end:url(#marker1576-4)" id="path9427" d="m 371.17602,176.60114 c -14.82664,21.37092 90.86392,22.23065 88.28248,38.56653"/><text xml:space="preserve" style="font-style:normal;font-variant:normal;font-weight:400;font-stretch:normal;font-size:6pt;line-height:125%;font-family:'DejaVu Sans Mono';-inkscape-font-specification:'DejaVu Sans Mono, Normal';font-variant-ligatures:normal;font-variant-caps:normal;font-variant-numeric:normal;font-variant-east-asian:normal;letter-spacing:0;word-spacing:0;writing-mode:lr-tb;fill:#e6a11b;fill-opacity:1;stroke:none;stroke-width:.750085px;stroke-linecap:butt;stroke-linejoin:miter;stroke-opacity:1" id="text11290" x="362.561" y="141.405" transform="rotate(10.069153)"><tspan style="font-style:normal;font-variant:normal;font-weight:400;font-stretch:normal;font-size:6pt;font-family:'DejaVu Sans Mono';-inkscape-font-specification:'DejaVu Sans Mono, Normal';font-variant-ligatures:normal;font-variant-caps:normal;font-variant-numeric:normal;font-variant-east-asian:normal;fill:#e6a11b;fill-opacity:1;stroke:none;stroke-width:.750085px" id="tspan11288" x="362.561" y="141.405">skipped</tspan></text><text xml:space="preserve" style="font-style:normal;font-variant:normal;font-weight:400;font-stretch:normal;font-size:6pt;line-height:125%;font-family:'DejaVu Sans Mono';-inkscape-font-specification:'DejaVu Sans Mono, Normal';font-variant-ligatures:normal;font-variant-caps:normal;font-variant-numeric:normal;font-variant-east-asian:normal;letter-spacing:0;word-spacing:0;writing-mode:lr-tb;fill:#1c1be6;fill-opacity:1;stroke:none;stroke-width:.750085px;stroke-linecap:butt;stroke-linejoin:miter;stroke-opacity:1" id="text11424" x="459.801" y="208.669"><tspan style="font-style:normal;font-variant:normal;font-weight:400;font-stretch:normal;font-size:6pt;font-family:'DejaVu Sans Mono';-inkscape-font-specification:'DejaVu Sans Mono, Normal';font-variant-ligatures:normal;font-variant-caps:normal;font-variant-numeric:normal;font-variant-east-asian:normal;fill:#1c1be6;fill-opacity:1;stroke:none;stroke-width:.750085px" id="tspan11422" x="459.801" y="208.669">④ handlePointerEvent()</tspan></text><path style="fill:none;fill-rule:evenodd;stroke:#1c1be6;stroke-width:1.00011;stroke-linecap:butt;stroke-linejoin:miter;stroke-dasharray:1.00011,1.00011;stroke-dashoffset:0;stroke-opacity:1;marker-end:url(#marker1576)" id="path14423" d="m 553.17544,291.61876 c -3.52959,-16.19952 30.87947,-9.32879 19.17598,1.46963"/><text xml:space="preserve" style="font-style:normal;font-variant:normal;font-weight:400;font-stretch:normal;font-size:6pt;line-height:125%;font-family:'DejaVu Sans Mono';-inkscape-font-specification:'DejaVu Sans Mono, Normal';font-variant-ligatures:normal;font-variant-caps:normal;font-variant-numeric:normal;font-variant-east-asian:normal;letter-spacing:0;word-spacing:0;writing-mode:lr-tb;fill:#1c1be6;fill-opacity:1;stroke:none;stroke-width:.750085px;stroke-linecap:butt;stroke-linejoin:miter;stroke-opacity:1" id="text14441" x="577.468" y="276.843"><tspan style="font-style:normal;font-variant:normal;font-weight:400;font-stretch:normal;font-size:6pt;font-family:'DejaVu Sans Mono';-inkscape-font-specification:'DejaVu Sans Mono, Normal';font-variant-ligatures:normal;font-variant-caps:normal;font-variant-numeric:normal;font-variant-east-asian:normal;fill:#1c1be6;fill-opacity:1;stroke:none;stroke-width:.750085px" id="tspan14439" x="577.468" y="276.843">⑥ handlePointerEventImpl()</tspan><tspan style="font-style:normal;font-variant:normal;font-weight:400;font-stretch:normal;font-size:6pt;font-family:'DejaVu Sans Mono';-inkscape-font-specification:'DejaVu Sans Mono, Normal';font-variant-ligatures:normal;font-variant-caps:normal;font-variant-numeric:normal;font-variant-east-asian:normal;fill:#1c1be6;fill-opacity:1;stroke:none;stroke-width:.750085px" id="tspan14459" x="577.468" y="287.797">⑦ setPassiveGrab()</tspan></text></svg>