<svg xmlns="http://www.w3.org/2000/svg" xmlns:svg="http://www.w3.org/2000/svg" id="svg2" width="120" height="120" version="1.1"><metadata id="metadata7"/><g id="layer1" transform="translate(-93.000067,-75.362307)"><path style="fill:none;fill-opacity:1;fill-rule:evenodd;stroke:#000;stroke-width:1.88977;stroke-linecap:round;stroke-linejoin:round;stroke-miterlimit:4;stroke-dasharray:none;stroke-dashoffset:0;stroke-opacity:1" id="rect2387" d="m 105.75595,88.1182 c 0,-11.811047 11.81103,-11.811047 11.81103,0 h 23.62207 L 153.00008,76.307153 164.81112,88.1182 h 23.62206 c 0,-11.811047 11.81104,-11.811047 11.81104,0 11.81104,0 11.81104,11.811049 0,11.811049 v 23.622101 l 11.81104,11.81105 -11.81104,11.81105 v 23.62209 c 11.81104,0 11.81104,11.81105 0,11.81105 0,11.81105 -11.81104,11.81105 -11.81104,0 h -23.62206 l -11.81104,11.81105 -11.81103,-11.81105 h -23.62207 c 0,11.81105 -11.81103,11.81105 -11.81103,0 -11.811037,0 -11.811037,-11.81105 0,-11.81105 V 147.17345 L 93.944913,135.3624 105.75595,123.55135 V 99.929249 c -11.811037,0 -11.811037,-11.811049 0,-11.811049 z"/><path id="path3160" d="m 110.48036,92.84263 c 0,-10.629942 0,-9.448848 4.72442,-1e-5 l 27.16537,1e-5 10.62993,-10.629942 10.62993,10.629942 27.16538,-1e-5 c 4.72441,-9.448838 4.72441,-10.629932 4.72441,1e-5 10.62993,0 9.44883,-1e-5 0,4.724411 v 27.165419 l 10.62993,10.62995 -10.62993,10.62994 v 27.1654 c 9.44883,4.72442 10.62993,4.72443 0,4.72443 0,10.62995 0,9.44883 -4.72441,-1e-5 l -27.16538,1e-5 -10.62993,10.62995 -10.62993,-10.62995 -27.16537,-1e-5 c -4.72442,9.44884 -4.72442,10.62996 -4.72442,1e-5 -10.629933,0 -9.44883,-1e-5 0,-4.72443 v -27.1654 L 99.850427,135.36241 110.48036,124.73246 V 97.567041 c -9.44883,-4.724421 -10.629933,-4.724411 0,-4.724411 z" style="fill:none;fill-opacity:1;fill-rule:evenodd;stroke:#000;stroke-width:3.77954;stroke-linecap:round;stroke-linejoin:round;stroke-miterlimit:4;stroke-dasharray:none;stroke-dashoffset:0;stroke-opacity:1"/></g></svg>