<svg xmlns="http://www.w3.org/2000/svg" xmlns:svg="http://www.w3.org/2000/svg" id="svg5" width="210mm" height="297mm" version="1.1" viewBox="0 0 210 297"><metadata id="metadata122"/><g id="g1413" style="display:inline"><rect style="fill:none;stroke-width:.946642;stroke-linejoin:round" id="rect1401" width="6.085" height="3.969" x="30.427" y="0"/><rect style="fill:#000;fill-opacity:1;stroke:none;stroke-width:7.98967;stroke-linejoin:round" id="rect1403" width=".265" height="3.44" x="30.427" y=".265"/><rect style="fill:#000;fill-opacity:1;stroke:none;stroke-width:10.1547;stroke-linejoin:round" id="rect1405" width=".265" height="5.556" x="-.264" y="30.692" transform="matrix(3.6708238e-5,-1,1,1.4067378e-5,0,0)"/><rect style="fill:#000;fill-opacity:1;stroke:none;stroke-width:2.21594;stroke-linejoin:round" id="rect1407" width=".265" height=".265" x="-3.959" y="33.338" transform="matrix(1.7480114e-6,-1,0.99999996,2.9541491e-4,0,0)"/><rect style="fill:#000;fill-opacity:1;stroke:none;stroke-width:2.21594;stroke-linejoin:round" id="rect1409" width=".265" height=".265" x="-2.106" y="36.248" transform="matrix(1.7480114e-6,-1,0.99999996,2.9541491e-4,0,0)"/><rect style="fill:#4fc1e9;fill-opacity:1;fill-rule:evenodd;stroke-width:.263352" id="rect1411" width="5.556" height="3.44" x="30.692" y=".265"/></g><g id="g939" style="display:inline"><rect style="fill:none;stroke-width:.946642;stroke-linejoin:round" id="rect927" width="6.085" height="3.969" x="18.256" y="0"/><rect style="fill:#000;fill-opacity:1;stroke:none;stroke-width:7.98967;stroke-linejoin:round" id="rect929" width=".265" height="3.44" x="18.256" y=".265"/><rect style="fill:#000;fill-opacity:1;stroke:none;stroke-width:10.1547;stroke-linejoin:round" id="rect931" width=".265" height="5.556" x="-.264" y="18.521" transform="matrix(3.6708238e-5,-1,1,1.4067378e-5,0,0)"/><rect style="fill:#000;fill-opacity:1;stroke:none;stroke-width:2.21594;stroke-linejoin:round" id="rect933" width=".265" height=".265" x="-3.962" y="21.167" transform="matrix(1.7480114e-6,-1,0.99999996,2.9541491e-4,0,0)"/><rect style="fill:#000;fill-opacity:1;stroke:none;stroke-width:2.21594;stroke-linejoin:round" id="rect935" width=".265" height=".265" x="-2.11" y="24.077" transform="matrix(1.7480114e-6,-1,0.99999996,2.9541491e-4,0,0)"/><rect style="fill:#e6e9ed;fill-opacity:1;fill-rule:evenodd;stroke-width:.263352" id="rect937" width="5.556" height="3.44" x="18.521" y=".265"/></g><g id="g867" style="display:inline"><rect style="fill:none;stroke-width:.946642;stroke-linejoin:round" id="rect855" width="6.085" height="3.969" x="12.171" y="0"/><rect style="fill:#000;fill-opacity:1;stroke:none;stroke-width:7.98967;stroke-linejoin:round" id="rect857" width=".265" height="3.44" x="12.171" y=".265"/><rect style="fill:#000;fill-opacity:1;stroke:none;stroke-width:10.1547;stroke-linejoin:round" id="rect859" width=".265" height="5.556" x="-.264" y="12.435" transform="matrix(3.6708238e-5,-1,1,1.4067378e-5,0,0)"/><rect style="fill:#000;fill-opacity:1;stroke:none;stroke-width:2.21594;stroke-linejoin:round" id="rect861" width=".265" height=".265" x="-3.964" y="15.081" transform="matrix(1.7480114e-6,-1,0.99999996,2.9541491e-4,0,0)"/><rect style="fill:#000;fill-opacity:1;stroke:none;stroke-width:2.21594;stroke-linejoin:round" id="rect863" width=".265" height=".265" x="-2.111" y="17.992" transform="matrix(1.7480114e-6,-1,0.99999996,2.9541491e-4,0,0)"/><rect style="fill:#e6e9ed;fill-opacity:1;fill-rule:evenodd;stroke-width:.263352" id="rect865" width="5.556" height="3.44" x="12.435" y=".265"/></g><g id="g2435" style="display:inline"><rect style="fill:none;stroke-width:.946642;stroke-linejoin:round" id="rect2425" width="6.085" height="3.969" x="6.085" y="0"/><rect style="fill:#000;fill-opacity:1;stroke:none;stroke-width:7.98967;stroke-linejoin:round" id="rect2427" width=".265" height="3.44" x="6.085" y=".265"/><rect style="fill:#000;fill-opacity:1;stroke:none;stroke-width:10.1547;stroke-linejoin:round" id="rect2429" width=".265" height="5.556" x="-.264" y="6.35" transform="matrix(3.6708238e-5,-1,1,1.4067378e-5,0,0)"/><rect style="fill:#000;fill-opacity:1;stroke:none;stroke-width:2.21594;stroke-linejoin:round" id="rect2431" width=".265" height=".265" x="-3.966" y="8.996" transform="matrix(1.7480114e-6,-1,0.99999996,2.9541491e-4,0,0)"/><rect style="fill:#000;fill-opacity:1;stroke:none;stroke-width:2.21594;stroke-linejoin:round" id="rect2433" width=".265" height=".265" x="-2.113" y="11.906" transform="matrix(1.7480114e-6,-1,0.99999996,2.9541491e-4,0,0)"/><rect style="fill:#f5f7fa;fill-opacity:1;fill-rule:evenodd;stroke-width:.263352" id="rect124" width="5.556" height="3.44" x="6.35" y=".265"/></g><g id="layer1" style="display:inline"><rect style="fill:none;stroke-width:.946642;stroke-linejoin:round" id="rect846" width="6.085" height="3.969" x="0" y="0"/><rect style="fill:#000;fill-opacity:1;stroke:none;stroke-width:7.98967;stroke-linejoin:round" id="rect1054" width=".265" height="3.44" x="0" y=".265"/><rect style="fill:#000;fill-opacity:1;stroke:none;stroke-width:10.1547;stroke-linejoin:round" id="rect1212" width=".265" height="5.556" x="-.265" y=".265" transform="matrix(3.6708238e-5,-1,1,1.4067378e-5,0,0)"/><rect style="fill:#000;fill-opacity:1;stroke:none;stroke-width:2.21594;stroke-linejoin:round" id="rect1505" width=".265" height=".265" x="-3.968" y="2.91" transform="matrix(1.7480114e-6,-1,0.99999996,2.9541491e-4,0,0)"/><rect style="fill:#000;fill-opacity:1;stroke:none;stroke-width:2.21594;stroke-linejoin:round" id="rect1587" width=".265" height=".265" x="-2.115" y="5.821" transform="matrix(1.7480114e-6,-1,0.99999996,2.9541491e-4,0,0)"/><rect style="fill:#fff;fill-opacity:1;stroke:none;stroke-width:1.0578;stroke-linejoin:round;stroke-miterlimit:4;stroke-dasharray:none;stroke-opacity:1" id="rect3108" width="5.556" height="3.44" x=".265" y=".265"/></g></svg>