<svg xmlns="http://www.w3.org/2000/svg" xmlns:svg="http://www.w3.org/2000/svg" id="svg139" width="1792" height="1792" version="1.1" viewBox="-10 0 1792 1792"><path id="path137" fill="currentColor" d="M 1590,1376 V 672 q 0,-40 -28,-68 -28,-28 -68,-28 H 790 q -40,0 -68,-28 -28,-28 -28,-68 v -64 q 0,-40 -28,-68 -28,-28 -68,-28 H 278 q -40,0 -68,28 -28,28 -28,68 v 960 q 0,40 28,68 28,28 68,28 h 1216 q 40,0 68,-28 28,-28 28,-68 z m 128,-704 v 704 q 0,92 -66,158 -66,66 -158,66 H 278 q -92,0 -158,-66 -66,-66 -66,-158 V 416 q 0,-92 66,-158 66,-66 158,-66 h 320 q 92,0 158,66 66,66 66,158 v 32 h 672 q 92,0 158,66 66,66 66,158 z"/></svg>