<svg xmlns="http://www.w3.org/2000/svg" xmlns:svg="http://www.w3.org/2000/svg" id="svg147" width="1792" height="1792" version="1.1" viewBox="-10 0 1792 1792"><path id="path145" fill="currentColor" d="m 1586,476 q 14,14 28,36 H 1142 V 40 q 22,14 36,28 z m -476,164 h 544 v 1056 q 0,40 -28,68 -28,28 -68,28 H 214 q -40,0 -68,-28 -28,-28 -28,-68 V 96 Q 118,56 146,28 174,0 214,0 h 800 v 544 q 0,40 28,68 28,28 68,28 z m 160,736 v -64 q 0,-14 -9,-23 -9,-9 -23,-9 H 534 q -14,0 -23,9 -9,9 -9,23 v 64 q 0,14 9,23 9,9 23,9 h 704 q 14,0 23,-9 9,-9 9,-23 z m 0,-256 v -64 q 0,-14 -9,-23 -9,-9 -23,-9 H 534 q -14,0 -23,9 -9,9 -9,23 v 64 q 0,14 9,23 9,9 23,9 h 704 q 14,0 23,-9 9,-9 9,-23 z m 0,-256 v -64 q 0,-14 -9,-23 -9,-9 -23,-9 H 534 q -14,0 -23,9 -9,9 -9,23 v 64 q 0,14 9,23 9,9 23,9 h 704 q 14,0 23,-9 9,-9 9,-23 z"/></svg>