<svg xmlns="http://www.w3.org/2000/svg" xmlns:svg="http://www.w3.org/2000/svg" id="svg163" width="1792" height="1792" version="1.1" viewBox="-10 0 1792 1792"><path id="path161" fill="currentColor" d="m 1142,1376 v -160 q 0,-14 -9,-23 -9,-9 -23,-9 h -96 V 672 q 0,-14 -9,-23 -9,-9 -23,-9 H 662 q -14,0 -23,9 -9,9 -9,23 v 160 q 0,14 9,23 9,9 23,9 h 96 v 320 h -96 q -14,0 -23,9 -9,9 -9,23 v 160 q 0,14 9,23 9,9 23,9 h 448 q 14,0 23,-9 9,-9 9,-23 z M 1014,480 V 320 q 0,-14 -9,-23 -9,-9 -23,-9 H 790 q -14,0 -23,9 -9,9 -9,23 v 160 q 0,14 9,23 9,9 23,9 h 192 q 14,0 23,-9 9,-9 9,-23 z m 640,416 q 0,209 -103,385.5 Q 1448,1458 1271.5,1561 1095,1664 886,1664 677,1664 500.5,1561 324,1458 221,1281.5 118,1105 118,896 118,687 221,510.5 324,334 500.5,231 677,128 886,128 1095,128 1271.5,231 1448,334 1551,510.5 1654,687 1654,896 Z"/></svg>